<?xml version="1.0" encoding="UTF-8"?>
<!DOCTYPE svg PUBLIC "-//W3C//DTD SVG 1.1//EN" "http://www.w3.org/Graphics/SVG/1.1/DTD/svg11.dtd">
<!-- Creator: CorelDRAW 2020 (64 Bit) -->
<svg xmlns="http://www.w3.org/2000/svg" xml:space="preserve" width="104.817mm" height="36.1526mm" version="1.1" style="shape-rendering:geometricPrecision; text-rendering:geometricPrecision; image-rendering:optimizeQuality; fill-rule:evenodd; clip-rule:evenodd"
viewBox="0 0 104.8172 36.1526"
 xmlns:xlink="http://www.w3.org/1999/xlink"
 xmlns:xodm="http://www.corel.com/coreldraw/odm/2003">
 <defs>
  <style type="text/css">
   <![CDATA[
    .fil0 {fill:#9F3335}
    .fil1 {fill:#292929}
   ]]>
  </style>
 </defs>
 <g id="Camada_x0020_1">
  <metadata id="CorelCorpID_0Corel-Layer"/>
  <path class="fil0" d="M-0.0101 11.5335c0,15.7588 19.0914,16.9748 22.1847,3.6974l-6.9839 0c-4.3341,8.1902 -8.2169,0.9797 -8.2169,-2.0539 0,-10.8978 7.0344,-8.772 8.2169,-3.6975l6.9839 0c-1.4037,-6.0251 -5.5782,-9.0219 -9.9326,-9.4489l-2.1758 0c-5.2191,0.4988 -10.0763,4.5971 -10.0763,11.5029z"/>
  <polygon class="fil0" points="50.1108,6.604 57.5058,6.604 57.5058,24.6803 64.4897,24.6803 64.4897,6.604 71.4736,6.604 71.4736,0.4416 50.1108,0.4416 "/>
  <path class="fil1" d="M35.814 0.0306l1.4178 0c4.3443,0.23 8.5057,2.5659 10.3573,6.6302 1.4819,3.2535 1.2893,3.481 1.2893,6.9271 0,9.2602 -13.3575,15.2077 -20.8524,7.7055 -3.4791,-3.482 -3.7974,-5.4093 -3.7974,-10.1704 0,-1.4203 0.7463,-3.6029 1.2315,-4.5204 2.2569,-4.2686 6.2843,-6.3556 10.3539,-6.572zm-2.1365 19.7198c5.0896,0 2.8779,-0.4207 6.5734,2.054 -1.6968,2.5333 -1.969,2.0539 -5.7514,2.0539 -0.936,0 -2.5572,-1.5653 -3.2869,-2.0539 0.4798,-0.7167 1.3295,-2.054 2.4649,-2.054zm6.1625 3.6974c0.6031,-0.8234 1.7313,-1.4964 2.709,-2.2209 1.1054,-0.8186 1.6464,-1.5149 3.0429,-1.8875 -1.2587,1.8793 -3.2137,3.5169 -5.7519,4.1084zm-9.0379 -8.2169l2.0539 -4.1079 4.519 0c4.5524,6.7981 1.4984,3.549 0.411,8.2164l-5.341 0c-0.3338,-1.4329 -1.6429,-3.1705 -1.6429,-4.1085zm-5.752 -2.4649c0.2029,0.2916 0.2232,0.2086 0.4644,0.7686 0.2276,0.5274 0.2169,0.5415 0.427,1.2164 0.2897,0.9331 0.3411,1.4975 0.3411,2.9449 -0.2591,-0.2979 -0.2654,-0.148 -0.5464,-0.6856 -0.2693,-0.5153 -0.2668,-0.5173 -0.4546,-1.1888 -0.3334,-1.1913 -0.2315,-1.7333 -0.2315,-3.0555zm20.5418 5.7519c-0.9147,-1.6284 -0.2528,-3.9013 0.4047,-5.3468 0.6366,-1.3984 0.5987,-2.069 2.0603,-2.4591 0,1.5668 0.1518,3.334 -0.2344,4.696 -0.6813,2.4029 -1.0234,2.7872 -2.2306,3.1099zm-7.3949 -7.8059c0.41,-1.7599 0.901,-2.7057 1.643,-4.108l4.1084 0c2.7294,5.1585 2.3519,3.106 1.4033,5.9223 -0.2572,0.7637 -0.4226,1.6104 -0.5818,2.2941l-4.108 0c-0.8137,-1.5381 -1.6512,-2.5702 -2.4649,-4.1084zm-8.2169 3.6974l-3.2865 0c-1.2558,-5.3909 -2.3961,-1.7245 0.8215,-7.8054l3.287 0c1.822,3.7974 1.4421,4.4244 -0.822,7.8054zm6.1624 -13.1463c4.6073,-1.1029 7.3949,1.6003 7.3949,2.8759l0 1.643c-4.3462,0 -3.0341,0.3334 -5.2075,-0.9549 -0.9389,-0.5566 -1.1398,-0.8195 -2.1874,-1.099l0 -2.465zm-5.7514 4.5189l-2.465 0c0.0446,-2.0059 -0.5799,-1.0437 1.7478,-2.7711 1.4916,-1.1073 3.4049,-2.1088 5.6471,-2.1588 0,2.3543 -0.017,2.4902 -1.6279,3.302 -0.5721,0.2887 -2.8605,1.6279 -3.302,1.6279z"/>
  <polygon class="fil0" points="104.7507,18.515 94.0723,18.515 94.0723,0.4416 87.4959,0.4416 87.4959,24.6803 104.7507,24.6803 "/>
  <polygon class="fil0" points="81.3471,24.6803 81.3335,0.428 74.7606,0.428 74.7606,24.6803 "/>
  <path class="fil0" d="M71.8846 30.4318c0,4.761 2.0792,5.7514 6.1624,5.7514 4.8509,-0.7885 4.008,-3.3403 4.1085,-6.1624 -5.3356,0 -4.93,-0.462 -4.93,2.4649l2.054 0c-0.9345,2.6921 -5.337,1.2578 -4.1152,-2.349 0.6662,-1.9666 3.6504,-2.4378 4.4224,-1.3077 0.3197,0.4678 1.5401,0.0102 2.5688,-0.0407 -1.2194,-5.2337 -10.2709,-3.7722 -10.2709,1.6435z"/>
  <path class="fil0" d="M65.6571 28.7291c3.1128,0 2.6528,4.5641 -0.0009,4.7611 -2.6033,0.0024 -3.3695,-4.6743 0.0009,-4.7611zm-1.1674 7.4541c10.0753,0 6.9878,-12.0604 -0.1723,-10.4713 -6.5666,1.4562 -4.5383,10.4713 0.1723,10.4713z"/>
  <path class="fil0" d="M100.8378 29.9295c-4.6223,-0.2319 -2.2063,-2.5018 -0.5987,-1.8404 0.2295,0.0946 0.9166,0.3236 0.9282,1.016 1.8114,-0.1722 0.6124,-0.1281 2.2384,-0.1218 -0.7157,-7.5453 -12.9193,-0.2654 -6.0703,2.2903 2.1579,0.2004 3.0089,0.0976 3.418,0.8574 0.8065,1.4975 -0.8152,1.8856 -1.7779,1.6086 -0.5022,-0.1446 -1.2558,-0.788 -1.2611,-1.2539l-2.4126 0c0.1325,5.963 10.0137,4.3909 7.9816,-1.3305 -0.2111,-0.5953 -1.2189,-1.0971 -2.4456,-1.2257z"/>
  <path class="fil0" d="M55.4513 32.4857c0.1752,1.3043 -1.6367,1.971 -2.0268,-0.4396 -1.6115,0.0058 -1.0734,0.0447 -2.8784,0.0849 0.1067,4.7776 5.765,4.8645 7.359,2.8081 1.3203,-1.7027 0.8331,-6.0217 0.8331,-9.0263l-3.2869 0 0 6.5729z"/>
  <path class="fil0" d="M88.6318 28.6409c3.1128,0 2.6528,4.5641 -0.0009,4.7611 -2.6033,0.0024 -3.3695,-4.6743 0.0009,-4.7611zm-1.1674 7.4541c10.0753,0 6.9878,-12.0604 -0.1723,-10.4713 -6.5666,1.4562 -4.5383,10.4713 0.1723,10.4713z"/>
 </g>
</svg>
