<?xml version="1.0" encoding="utf-8"?>
<!-- Generator: Adobe Illustrator 23.0.1, SVG Export Plug-In . SVG Version: 6.00 Build 0)  -->
<svg version="1.1" id="Camada_1" xmlns="http://www.w3.org/2000/svg" xmlns:xlink="http://www.w3.org/1999/xlink" x="0px" y="0px"
	 viewBox="0 0 896.5 312.3" style="enable-background:new 0 0 896.5 312.3;" xml:space="preserve">
<style type="text/css">
	.st0{fill:#9F3335;}
	.st1{fill:#9E3335;}
	.st2{fill:#FEFEFE;}
	.st3{fill:#FFFFFF;}
</style>
<g>
	<g>
		<path class="st0" d="M124.6,26.5c17.7-0.1,34,3,49.5,10.2c11.7,5.5,21.8,13,30.5,22.5c7,7.5,13,15.8,18.6,24.4
			c2.3,3.5,0.5,7.8-2.7,8.9c-0.4,0.1-0.7,0.3-1.1,0.5c-5.3,2.1-10.5,4.2-15.8,6.2c-7.1,2.8-14.3,5.6-21.4,8.4
			c-4.8,1.9-8.5,0.7-11.3-3.7c-3.7-5.8-8.2-10.9-13.5-15.1c-9-7.1-19.4-10-30.7-10.5c-21.8-1.1-42.5,14.1-49.9,35.3
			c-9.6,27.6,3.7,57,30.8,67.9c7.4,3,15.2,3.8,23.1,2.9c17.6-2.1,31-11,40.8-25.7c2.8-4.1,6.1-5.2,10.7-3.4
			c12.4,4.9,24.8,9.8,37.2,14.7c0.5,0.2,1,0.4,1.5,0.7c3.2,1.6,4.4,4.9,2.7,8c-1.2,2.3-2.8,4.5-4.2,6.7
			c-7.2,10.5-15.2,20.2-25.1,28.2c-13.4,10.9-28.7,17.7-45.7,21c-11.5,2.3-23.2,2.8-34.8,1.7c-17.3-1.6-33.3-7.3-47.9-16.8
			c-22.3-14.4-37.3-34.2-44.7-59.7c-3.8-12.9-4.6-26.1-3.2-39.4c2.4-22.9,11.5-42.8,27.2-59.5C61.8,43.1,82.4,32,106.6,27.8
			C112.8,26.7,119,26.3,124.6,26.5z"/>
		<path class="st0" d="M531.3,29.6c23.9,0,47.8,0,71.7,0c0.6,0,1.1,0,1.7,0c3.8,0.1,6.4,2.6,6.5,6.5c0.1,4.8,0,9.6,0,14.4
			c0,7.6,0,15.2,0,22.8c0,5-2.4,7.5-7.5,7.6c-8.1,0-16.2,0-24.2,0c-4.6,0-9.3,0-13.9,0c-3.8,0-6.5,2.7-6.6,6.4c0,0.9,0,1.8,0,2.6
			c0,45,0,90.1,0,135.1c0,1.1,0.1,2.2-0.3,3.3c-0.8,2.8-2.8,4.5-5.7,4.7c-0.8,0.1-1.6,0.1-2.4,0.1c-12.9,0-25.8,0-38.6,0
			c-0.7,0-1.4,0-2.2-0.1c-3.4-0.3-5.9-2.9-6.1-6.3c0-0.8,0-1.6,0-2.4c0-45,0-89.9,0-134.9c0-0.6,0-1.3,0-1.9
			c0.1-3.8-2.8-6.9-6.9-6.9c-12.4,0.2-24.8,0.1-37.2,0.1c-1,0-1.9,0-2.9-0.1c-3.6-0.6-5.8-3.1-5.8-6.8c0-11.9,0-23.8,0-35.8
			c0-0.6,0.1-1.3,0-1.9c-0.3-3.4,3.1-6.9,6.6-6.7c3,0.1,6.1,0,9.1,0C488.2,29.6,509.7,29.6,531.3,29.6z"/>
		<path class="st0" d="M726.9,131.2c0-31.4,0-62.7,0-94.1c0-1.1-0.1-2.2,0.3-3.3c1-2.7,3.1-4.2,6.3-4.2c8.5,0,17,0,25.4,0
			c5.2,0,10.4,0.2,15.6-0.1c3.9-0.2,7.5,2.7,7.5,7.4c-0.1,23.8-0.1,47.7-0.1,71.5c0,21.1,0,42.2,0,63.3c0,1.5,0,3,0.2,4.5
			c0.3,3,2.4,5,5.4,5.5c1.2,0.2,2.4,0.2,3.6,0.2c26.7,0,53.4,0,80.1,0c1.4,0,2.7-0.1,4,0.6c2.6,1.4,3.8,3.5,3.8,6.4
			c0,8.4,0,16.8,0,25.2c0,3.8-0.1,7.7,0,11.5c0.2,3.8-2.5,7.7-7.5,7.4c-0.6,0-1.1,0-1.7,0c-44.8,0-89.6,0-134.4,0
			c-1,0-2.1,0-3.1-0.1c-3.1-0.3-5.4-2.8-5.6-5.9c0-0.6,0-1.3,0-1.9C726.9,193.9,726.9,162.6,726.9,131.2z"/>
		<path class="st0" d="M634.8,131.6c0-31,0-62.1,0-93.1c0-0.6,0-1.3,0-1.9c0.1-4.2,2.5-6.7,6.7-6.7c8.7,0,17.4,0,26.1,0
			c5.1,0,10.2,0.2,15.4-0.1c3.9-0.2,7.4,2.8,7.2,7.2c0,0.6,0,1.1,0,1.7c0,62,0,124,0,185.9c0,1,0,2.1-0.1,3.1
			c-0.4,2.8-2.8,5.1-5.6,5.4c-0.9,0.1-1.8,0.1-2.6,0.1c-12.9,0-25.8,0-38.6,0c-0.9,0-1.8,0-2.6-0.1c-3.1-0.3-5.4-2.6-5.7-5.8
			c-0.1-0.9,0-1.8,0-2.6C634.8,193.7,634.8,162.6,634.8,131.6z"/>
	</g>
	<g>
		<path class="st1" d="M564,287.8c0.5-1,1.3-1.6,2.2-2c2.7-1.3,5.4-2.8,8.1-4.1c1.6-0.8,2.5-0.6,3.5,0.8c0.8,1.2,1.7,2.2,2.8,3.1
			c2.2,1.9,4.8,2.4,7.5,1.4c2.5-1,3.5-3.2,4-5.7c0.2-1.2,0.3-2.4,0.3-3.6c0-11.4,0-22.9,0-34.3c0-2.1,0.6-2.7,2.6-2.7
			c3.9,0,7.8,0,11.6,0c1.8,0,2.5,0.7,2.5,2.5c0,11.8,0.1,23.7,0,35.5c0,6.5-1.8,12.4-6.2,17.3c-4.4,5-10.2,7.1-16.8,7.2
			c-10.2,0.2-17.1-5-21.6-13.7c-0.2-0.3-0.3-0.6-0.5-1C564,288.3,564,288.1,564,287.8z"/>
		<path class="st1" d="M734.4,266.4c4.6,0,9.2,0,13.8,0c2.1,0,2.8,0.5,2.9,2.6c1.1,14.1-5.4,25.4-17.9,31.2
			c-18.4,8.5-40.1-1.6-45.3-20.9c-4-14.9,3.9-31,18.6-37c12.6-5.1,24.5-3.6,35,5.4c1.9,1.6,3.5,3.6,4.9,5.7c0.9,1.3,0.6,2.5-0.7,3.4
			c-3.2,2-6.3,4.1-9.5,6.1c-1.4,0.9-2.5,0.7-3.6-0.5c-2.4-2.8-5.2-5.2-8.9-6.2c-8-2.2-15.9,2.1-18.9,10.1
			c-2.7,7.4,0.8,15.9,8.2,19.5c5.1,2.5,12.1,1.7,16-1.8c0.5-0.4,0.9-0.9,1.3-1.4c0.4-0.4,0.6-0.9,0.4-1.4c-0.3-0.6-0.8-0.6-1.3-0.6
			c-2.5,0-5,0-7.4,0c-0.7,0-1.4,0-2,0c-1.3-0.1-2.1-0.8-2.1-2c0-3.3,0-6.6,0-10c0-1.4,0.8-2.1,2.2-2.1
			C724.9,266.4,729.7,266.4,734.4,266.4z"/>
		<path class="st1" d="M789.7,239.5c16.9-0.2,32.1,14.2,31.8,32.5c-0.3,17.3-14.9,31.3-31.9,31.2c-17.4-0.1-31.6-14.3-31.7-31.8
			C757.8,253.8,772.1,239.5,789.7,239.5z"/>
		<path class="st1" d="M681.2,271.4c0,17.5-14.3,31.8-31.8,31.8c-17.6,0-31.8-14.3-31.8-31.9c0-17.2,14.4-32,32.1-31.8
			C667,239.7,681.2,254,681.2,271.4z"/>
		<path class="st1" d="M855.1,303.2c-10.2,0-18.9-2.8-26.4-8.8c-1.6-1.3-1.8-2.2-0.6-4c1.9-2.8,3.9-5.6,5.8-8.4
			c1.1-1.6,2.1-1.8,3.8-0.7c4.2,2.6,8.6,4.8,13.5,5.7c2.7,0.5,5.5,0.5,8.2-0.5c1.5-0.5,2.5-1.5,2.6-3.2c0-1-0.4-1.7-1.2-2.1
			c-1.6-0.9-3.5-1.2-5.3-1.5c-5.7-1-11.4-1.8-16.8-4.3c-7.5-3.6-11.1-10.1-10.3-18.4c0.7-8,6.3-14.2,14.8-16.1
			c11.5-2.6,22.3-0.8,31.9,6.4c1.8,1.3,2,2.3,0.7,4.1c-1.9,2.7-3.8,5.5-5.8,8.2c-1.1,1.6-2.1,1.8-3.7,0.8c-4.7-2.9-9.7-4.8-15.3-4.7
			c-1.3,0-2.6,0.1-3.8,0.5c-1.1,0.4-2,1-2.1,2.3s0.8,1.9,1.7,2.3c3,1.6,6.4,2.3,9.7,2.9c5,0.9,9.9,2,14.2,4.9
			c6.1,4.1,8.5,9.8,8,17.1c-0.7,9.2-6.6,14.9-15.8,16.7C860,303,857.3,303.3,855.1,303.2z"/>
		<path class="st2" d="M804.8,271.3c0,8.3-6.3,15.2-14.3,15.9c-6.2,0.5-12.5-3.8-14.9-10.2c-3.5-9.2,2.1-19.3,11.7-21.2
			c6.3-1.3,13.4,2.8,16.2,9.3C804.4,267.1,804.9,269.2,804.8,271.3z"/>
		<path class="st2" d="M649.5,255.6c7,0.1,13.5,5.6,14.8,12.7c1.6,8.5-3.8,16.9-12.2,18.6c-6,1.2-10.8-1.1-14.4-5.8
			c-7.3-9.4-2-23.2,9.6-25.3C648,255.6,648.7,255.6,649.5,255.6z"/>
	</g>
</g>
<g>
	<path d="M339.9,23.9c0.5,0,0.9,0,1.4,0c1.8-0.1,3.7,0.2,5.5,0.3c1.2,0,2.4,0.2,3.6,0.3c1.1,0.1,2.2,0.1,3.2,0.3
		c1.6,0.2,3.2,0.5,4.8,0.8c0.9,0.2,1.9,0.4,2.8,0.6c0.6,0.1,1.2,0.2,1.8,0.3c0.6,0.1,1.1,0.3,1.6,0.4c0.6,0.1,1.2,0.3,1.8,0.4
		c0.3,0.1,0.7,0.2,1,0.3c0.8,0.2,1.7,0.5,2.5,0.7c0.7,0.2,1.4,0.4,2.1,0.6c1,0.3,2.1,0.7,3.1,1.1c0.6,0.2,1.1,0.3,1.7,0.5
		c1.1,0.4,2.1,0.8,3.2,1.2c1,0.4,2,0.8,3,1.3c1.9,0.9,3.9,1.7,5.8,2.8c1.2,0.7,2.5,1.3,3.8,2c1.6,0.9,3.2,1.9,4.8,2.9
		c1.1,0.7,2.2,1.3,3.2,2.1c1.6,1.1,3.2,2.3,4.8,3.5c1.1,0.9,2.3,1.7,3.4,2.6c1.2,1,2.4,2.1,3.6,3.2c1.3,1.2,2.6,2.4,3.8,3.6
		c1.3,1.3,2.5,2.6,3.7,3.9c0.8,0.9,1.7,1.9,2.5,2.8c1,1.3,2.1,2.6,3.1,3.9c0.7,0.9,1.4,1.9,2.1,2.9c0.7,1,1.4,1.9,2,2.9
		c1.1,1.6,2.1,3.3,3.1,4.9c0.6,1,1.1,1.9,1.7,2.9c0.5,1,1.1,2,1.6,3c0.7,1.3,1.3,2.6,1.9,3.9c0.5,1.1,1,2.3,1.4,3.4
		c0.3,0.8,0.7,1.6,1,2.4c0.2,0.5,0.4,1.1,0.6,1.6c0.4,1.2,0.8,2.3,1.2,3.5c0.4,1.1,0.7,2.2,1,3.3c0.3,0.8,0.5,1.6,0.8,2.4
		c0.1,0.5,0.2,1,0.3,1.5c0.1,0.4,0.2,0.9,0.3,1.3c0.2,0.6,0.3,1.2,0.5,1.8c0.1,0.4,0.2,0.8,0.3,1.2c0.1,0.6,0.2,1.2,0.3,1.8
		c0.1,0.7,0.3,1.3,0.4,2c0.2,1.1,0.3,2.1,0.5,3.2c0.2,1.2,0.4,2.4,0.5,3.6c0.1,0.7,0,1.3,0.1,2c0.3,1.7,0.1,3.4,0.3,5.1
		c0.2,1.9,0.1,3.8,0.1,5.7c0,1.5-0.2,3-0.2,4.6c0,1.2-0.2,2.5-0.3,3.7c0,0.6-0.1,1.2-0.2,1.8c-0.3,1.7-0.4,3.5-0.7,5.2
		c-0.1,0.8-0.3,1.7-0.5,2.5c-0.1,0.6-0.2,1.3-0.3,1.9c-0.1,0.6-0.3,1.2-0.4,1.9c-0.1,0.5-0.2,1-0.4,1.5c-0.2,0.7-0.3,1.3-0.5,2
		c-0.2,0.8-0.4,1.6-0.6,2.3c-0.5,1.6-1,3.3-1.5,4.9c-0.2,0.7-0.4,1.4-0.7,2.1c-0.3,0.7-0.6,1.5-0.9,2.2c-0.4,1.1-0.9,2.1-1.3,3.1
		c-0.6,1.3-1.1,2.6-1.7,3.9c-0.9,1.8-1.8,3.6-2.7,5.4c-0.5,1-1.2,2-1.8,3c-0.4,0.6-0.7,1.3-1.1,1.9c-0.8,1.3-1.7,2.6-2.5,3.9
		c-1.2,1.8-2.5,3.6-3.8,5.3c-0.8,1-1.6,2.1-2.4,3.1c-0.7,0.9-1.5,1.7-2.3,2.6c-0.7,0.7-1.3,1.5-2,2.2c-1.3,1.4-2.6,2.8-4,4.1
		c-1.1,1.1-2.3,2.1-3.5,3.2c-1.2,1-2.4,2.1-3.6,3.1c-2,1.6-3.9,3.1-6.1,4.5c-1.5,1-2.9,2-4.4,2.9c-1.7,1-3.3,2-5,2.9
		c-1.2,0.7-2.5,1.3-3.7,2c-1.3,0.7-2.5,1.3-3.9,1.8c-1,0.4-1.9,0.9-2.9,1.3c-0.5,0.2-1,0.4-1.5,0.6c-1,0.4-2,0.8-3,1.2
		c-1.3,0.5-2.6,0.9-3.9,1.3c-0.7,0.3-1.5,0.5-2.2,0.7c-0.8,0.2-1.7,0.5-2.5,0.7c-0.4,0.1-0.8,0.2-1.1,0.3c-1.1,0.4-2.2,0.6-3.3,0.8
		c-0.4,0.1-0.8,0.2-1.3,0.3c-0.9,0.2-1.8,0.3-2.7,0.5c-0.8,0.2-1.5,0.4-2.3,0.5c-0.8,0.1-1.6,0.2-2.4,0.3c-0.4,0.1-0.7,0.1-1.1,0.2
		c-0.1,0-0.1,0.1-0.2,0.1c-1,0.1-2,0.2-3,0.3c-0.7,0.1-1.4,0.2-2.1,0.2c-0.2,0-0.5,0-0.7,0c-1.2,0.1-2.5,0.2-3.7,0.2
		c-0.4,0-0.8,0.1-1.2,0.1c-2.2,0-4.4,0-6.6,0c-1.2,0-2.3-0.2-3.5-0.2c0,0-0.1,0-0.1,0c-1.5-0.1-3-0.2-4.5-0.3c-0.5,0-1-0.2-1.6-0.2
		c-0.9-0.1-1.9-0.2-2.8-0.3c-0.8-0.1-1.5-0.3-2.3-0.4c-1.3-0.2-2.5-0.5-3.8-0.7c-0.5-0.1-1-0.2-1.4-0.3c-1.1-0.3-2.3-0.5-3.4-0.8
		c-1-0.3-2.1-0.5-3.1-0.8c-1.7-0.5-3.3-1.1-5-1.6c-1.4-0.5-2.8-1-4.2-1.6c-0.7-0.3-1.5-0.5-2.2-0.8c-1.3-0.6-2.7-1.2-4-1.8
		c-1.4-0.7-2.9-1.4-4.3-2.1c-1.4-0.7-2.9-1.5-4.2-2.3c-2-1.2-4-2.4-5.9-3.7c-1.3-0.9-2.6-1.8-3.9-2.7c-1.2-0.9-2.3-1.8-3.5-2.7
		c-2-1.6-3.9-3.2-5.8-5c-1.2-1.1-2.4-2.2-3.5-3.3c-1.3-1.3-2.5-2.7-3.8-4c-2-2.1-3.8-4.5-5.6-6.8c-0.8-1-1.6-2.1-2.3-3.2
		c-1.3-1.9-2.5-3.8-3.8-5.7c-0.6-0.9-1.1-1.9-1.6-2.8c-1.3-2.1-2.4-4.3-3.5-6.6c-0.7-1.5-1.5-3-2.1-4.5c-0.4-1-0.8-2-1.2-3
		c-0.3-0.9-0.7-1.7-1.1-2.6c-0.2-0.6-0.4-1.2-0.6-1.9c-0.2-0.7-0.5-1.5-0.7-2.2c-0.2-0.7-0.4-1.4-0.6-2.1c-0.2-0.8-0.5-1.6-0.7-2.3
		c-0.2-0.6-0.3-1.2-0.4-1.8c-0.1-0.5-0.3-1.1-0.5-1.6c-0.1-0.5-0.2-1-0.4-1.5c-0.2-0.8-0.4-1.6-0.5-2.4c-0.1-0.7-0.2-1.4-0.3-2.1
		c-0.1-0.6-0.2-1.1-0.3-1.7c-0.2-1-0.3-1.9-0.4-2.9c-0.1-0.6-0.1-1.3-0.2-1.9c-0.2-1.8-0.4-3.6-0.5-5.5c0-1.6-0.2-3.2-0.2-4.8
		c0-1.4,0-2.9,0.1-4.3c0-1.5,0.1-3,0.2-4.4c0-0.6,0.1-1.1,0.2-1.7c0.1-1,0.2-2.1,0.4-3.1c0.3-1.5,0.4-3.1,0.6-4.6
		c0.1-0.8,0.3-1.6,0.5-2.4c0.1-0.5,0.2-0.9,0.2-1.4c0.2-1.1,0.4-2.2,0.7-3.3c0.1-0.5,0.3-1,0.4-1.5c0.1-0.4,0.2-0.9,0.3-1.3
		c0.4-1.4,0.8-2.9,1.2-4.3c0.3-0.9,0.5-1.7,0.8-2.6c0.5-1.5,1.1-3,1.6-4.5c0.3-0.8,0.7-1.6,1-2.4c0.5-1.2,0.9-2.3,1.5-3.5
		c0.5-1.1,1.1-2.2,1.6-3.3c0.5-1.1,1.1-2.1,1.6-3.2c0.6-1.1,1.2-2.1,1.8-3.1c0.5-0.8,0.9-1.6,1.4-2.4c1.1-1.8,2.3-3.5,3.5-5.3
		c0.7-1,1.4-1.9,2.1-2.9c0.8-1.1,1.7-2.1,2.5-3.2c0.9-1.1,1.7-2.1,2.7-3.2c1.4-1.5,2.8-3,4.2-4.5c2.4-2.4,4.9-4.6,7.5-6.9
		c1-0.9,2-1.6,3-2.4c0.5-0.4,1-0.8,1.5-1.2c0.9-0.7,1.8-1.3,2.8-2c1-0.7,1.9-1.3,2.9-2c1.1-0.7,2.3-1.5,3.4-2.2
		c1.2-0.7,2.4-1.5,3.6-2.1c1.4-0.8,2.8-1.5,4.3-2.2c1.5-0.7,3-1.5,4.5-2.1c1.7-0.7,3.4-1.4,5.1-2.1c1.2-0.5,2.3-0.9,3.5-1.3
		c1.3-0.4,2.6-0.8,4-1.2c0.8-0.3,1.6-0.5,2.4-0.7c0.9-0.2,1.7-0.4,2.6-0.6c0.6-0.1,1.2-0.3,1.8-0.4c0.4-0.1,0.8-0.2,1.2-0.3
		c0.7-0.1,1.4-0.2,2.1-0.4c0.1,0,0.2,0,0.3,0c1-0.3,2.1-0.4,3.1-0.6c1-0.1,2-0.4,3-0.5c0.4-0.1,0.8,0,1.2-0.1c1-0.1,2-0.1,3-0.3
		c1.5-0.2,3.1-0.1,4.6-0.3C336.6,23.8,338.2,24,339.9,23.9z M328.3,192.1C328.3,192.1,328.3,192.1,328.3,192.1
		c7.3-0.1,14.6-0.2,21.9-0.2c0.7,0,1.2-0.2,1.6-0.9c1-1.8,2.2-3.6,3.3-5.4c1-1.6,1.9-3.2,2.9-4.8c0.9-1.5,1.9-3.1,2.8-4.6
		c0.7-1.2,1.5-2.4,2.2-3.6c1.3-2,2.5-4,3.8-6.1c0.7-1.1,1.3-2.3,2-3.4c1.2-2,2.5-4,3.8-6c0.3-0.4,0.3-0.8,0-1.2
		c-0.8-1.1-1.5-2.3-2.2-3.4c-0.9-1.5-1.9-2.9-2.8-4.4c-1.6-2.4-3.1-4.8-4.7-7.2c-1.6-2.5-3.2-5.1-4.9-7.6c-1-1.6-2-3.1-3-4.7
		c-0.9-1.4-1.8-2.8-2.8-4.2c-1.1-1.7-2.2-3.4-3.3-5.1c-0.2-0.4-0.5-0.5-0.9-0.5c-4.4-0.2-8.9-0.3-13.3-0.5c-3.1-0.1-6.2-0.2-9.3-0.3
		c-2.5-0.1-5.1-0.2-7.6-0.2c-3.2-0.1-6.4-0.2-9.6-0.3c-1.1,0-1.1,0-1.6,0.9c-1.4,2.4-2.8,4.8-4.2,7.3c-1.1,1.9-2.2,3.9-3.3,5.8
		c-1.1,1.9-2.2,3.9-3.3,5.8c-1.1,1.9-2.2,3.9-3.3,5.8c-1.1,1.9-2.2,3.9-3.3,5.8c-1.3,2.3-2.6,4.7-4,7.1c-0.1,0.2-0.1,0.3,0,0.6
		c1.1,2,2.3,3.9,3.4,5.9c1.2,2.1,2.3,4.1,3.5,6.2c1.3,2.3,2.7,4.7,4,7c1.1,1.9,2.2,3.8,3.3,5.7c1.4,2.5,2.8,5,4.3,7.5
		c0.5,0.9,1.1,1.9,1.6,2.8c0.2,0.3,0.4,0.5,0.8,0.5c0.2,0,0.4,0,0.6,0C313.9,192.1,321.1,192.1,328.3,192.1z M404.9,76.9
		c-0.3,0-0.5,0-0.7,0c-1.3,0.1-2.7,0.2-4,0.2c-3.6,0.1-7.1,0.2-10.7,0.3c-4.2,0.1-8.3,0.2-12.5,0.3c-3,0.1-6.1-0.1-9.1,0.2
		c-0.7,0.1-1.2,0.1-1.4,0.9c-0.2,0.9-0.7,1.7-1,2.6c-0.2,0.5-0.4,1.1-0.6,1.6c-0.3,0.8-0.7,1.6-1,2.5c-0.2,0.5-0.4,1.1-0.6,1.7
		c-0.4,0.9-0.7,1.8-1.1,2.7c-0.4,1-0.8,2-1.2,3c-0.4,1.1-0.9,2.1-1.3,3.2c-0.3,0.8-0.7,1.7-1,2.5c-0.5,1.3-1,2.6-1.5,3.9
		c-0.5,1.2-0.9,2.4-1.4,3.7c-0.4,1.1-0.9,2.1-1.3,3.2c-0.4,1-0.8,2.1-1.2,3.1c-0.5,1.3-1,2.5-1.5,3.8c-0.1,0.3-0.1,0.6,0.1,0.9
		c0.7,1,1.3,2.1,2,3.1c0.9,1.4,1.9,2.9,2.8,4.3c1.2,1.9,2.5,3.9,3.7,5.8c1.4,2.2,2.8,4.3,4.2,6.5c1.5,2.4,3.1,4.7,4.6,7.1
		c1,1.5,1.9,3,2.9,4.6c1.1,1.7,2.2,3.3,3.2,5c0.3,0.5,0.6,0.7,1.2,0.7c3.5-0.1,7-0.2,10.5-0.2c7.8-0.1,15.7-0.2,23.5-0.3
		c0.1,0,0.1,0,0.2,0c0.3,0,0.5-0.1,0.6-0.5c0.2-0.5,0.4-1,0.6-1.5c0.6-1.4,1.3-2.9,1.9-4.3c0.5-1.1,0.9-2.3,1.4-3.4
		c0.6-1.4,1.3-2.9,1.9-4.3c0.5-1.1,0.9-2.3,1.4-3.4c0.6-1.5,1.3-2.9,1.9-4.4c0.5-1.1,1-2.3,1.5-3.4c0.6-1.4,1.2-2.8,1.9-4.3
		c0.5-1.1,0.9-2.3,1.4-3.4c0.8-1.8,1.6-3.6,2.4-5.4c0.1-0.3,0.1-0.7-0.1-1c-0.4-0.6-0.7-1.2-1.1-1.8c-1-1.7-2-3.4-3-5
		c-0.7-1.2-1.4-2.4-2.1-3.5c-0.9-1.5-1.8-3-2.7-4.5c-0.8-1.4-1.6-2.7-2.4-4.1c-1.4-2.3-2.8-4.6-4.2-6.9c-1.1-1.8-2.2-3.7-3.3-5.5
		c-0.9-1.5-1.8-3.1-2.7-4.6C405.5,78,405.2,77.5,404.9,76.9z M253.1,150.9c0.5,0,0.9,0,1.3,0.1c1.6,0.1,3.3,0.3,4.9,0.4
		c2,0.2,4,0.3,6,0.4c0.1,0,0.2,0,0.3,0c1.8,0.1,3.6,0.3,5.4,0.4c1.8,0.1,3.7,0.3,5.5,0.4c0.1,0,0.1,0,0.2,0c1.8,0.1,3.6,0.3,5.3,0.4
		c0.5,0,0.8-0.1,1-0.6c1.1-1.9,2.2-3.9,3.3-5.8c1.1-1.9,2.1-3.7,3.2-5.6c1.1-2,2.3-4,3.4-6c1.1-1.9,2.1-3.7,3.2-5.6
		c1.5-2.7,3.1-5.4,4.6-8.1c1-1.7,1.9-3.4,2.9-5c0.2-0.4,0.2-0.7,0.1-1.1c-0.1-0.4-0.2-0.7-0.4-1.1c-0.3-1-0.7-1.9-1-2.8
		c-0.2-0.6-0.4-1.3-0.6-1.9c-0.3-0.9-0.7-1.8-1-2.8c-0.4-1.3-0.8-2.5-1.3-3.8c-0.4-1.2-0.8-2.3-1.2-3.5c-0.2-0.7-0.4-1.3-0.6-2
		c-0.3-1-0.7-2.1-1.1-3.1c-0.3-0.9-0.6-1.8-0.9-2.7c-0.3-0.7-0.5-1.5-0.8-2.2c-0.2-0.6-0.4-1.2-0.6-1.8c-0.3-1-0.7-2-1.1-3
		c-0.3-1-0.7-1.9-1-2.9c-0.2-0.7-0.4-1.3-0.7-2c-0.2-0.6-0.4-1.1-0.6-1.7c-0.3,0-0.5,0-0.8,0c-2.5,0.1-5,0.1-7.5,0.2
		c-4.4,0.1-8.8,0.2-13.2,0.3c-2.7,0-5.4,0.1-8.2,0.1c-1.1,0-1.8,0.3-2.3,1.4c-1.5,2.9-3.2,5.7-4.8,8.6c-1,1.8-2,3.5-3,5.3
		c-1.2,2.2-2.4,4.4-3.7,6.5c-1,1.8-2,3.5-3,5.3c-0.7,1.3-1.4,2.6-2.1,3.8c-0.7,1.3-1.4,2.6-2.1,3.9c-0.3,0.5-0.5,1.1-0.7,1.7
		c-0.1,0.2,0,0.5,0.1,0.8c0.2,0.6,0.5,1.2,0.7,1.8c0.4,1.1,0.8,2.3,1.3,3.4c0.4,1.1,0.8,2.2,1.2,3.2c0.3,0.9,0.7,1.8,1,2.7
		c0.3,0.8,0.6,1.6,0.9,2.4c0.4,1.1,0.8,2.2,1.2,3.3c0.7,1.8,1.4,3.7,2.1,5.5c0.4,1.1,0.8,2.2,1.2,3.3c0.6,1.6,1.3,3.2,1.9,4.9
		C251.9,147.8,252.5,149.3,253.1,150.9z M335.9,31.9c0,0.5-0.1,1-0.1,1.4c0,0.3-0.2,0.7-0.2,1c-0.1,1-0.2,2-0.3,3
		c0,0.1,0,0.2-0.1,0.3c-0.1,0.9-0.3,1.8-0.4,2.7c-0.1,1-0.2,2-0.3,3c-0.1,0.7-0.2,1.4-0.3,2c-0.1,0.9-0.3,1.8-0.5,2.7
		c-0.2,1.3-0.4,2.6-0.5,3.9c0,0.2-0.1,0.5-0.1,0.7c0,0.2,0.1,0.4,0.3,0.5c1.3,0.8,2.6,1.6,3.9,2.5c2.2,1.4,4.3,2.7,6.5,4.1
		c2.2,1.4,4.4,2.8,6.6,4.2c2.4,1.5,4.8,3,7.3,4.5c1.6,1,3.3,2.1,4.9,3.1c1.2,0.8,2.4,1.5,3.6,2.3c0.6,0.4,1.2,0.6,1.9,0.5
		c0.7-0.1,1.4-0.1,2.1-0.1c3.6-0.1,7.3-0.2,10.9-0.3c3.5-0.1,6.9,0,10.4-0.2c3.9-0.2,7.8-0.2,11.7-0.3c1.1,0,1.1,0,1.1-1.1
		c0-6,0-11.9,0-17.9c0-0.4,0-0.7,0-1.1c0-0.3-0.1-0.5-0.4-0.7c-0.6-0.5-1.2-1-1.8-1.5c-1.9-1.5-3.7-3-5.6-4.6
		c-1.5-1.2-2.9-2.4-4.4-3.7c-1.5-1.3-3.1-2.5-4.6-3.8c-0.3-0.3-0.7-0.6-1.1-0.8c-1.4-0.7-2.9-1.4-4.3-2c-1-0.4-2-0.9-3-1.3
		c-1-0.4-2.1-0.8-3.2-1.2c-0.7-0.2-1.3-0.5-2-0.7c-0.9-0.3-1.9-0.7-2.8-0.9c-0.7-0.2-1.5-0.4-2.2-0.6c-1.1-0.3-2.2-0.7-3.4-1
		c-1.2-0.3-2.5-0.6-3.7-0.9c-1.8-0.3-3.5-0.6-5.3-0.9c-0.1,0-0.2,0-0.3-0.1c-0.9-0.1-1.8-0.3-2.7-0.4c-0.5,0-1,0.1-1.6,0.2
		c-0.7,0.1-1.3,0.2-1.9,0.3c-1.1,0.2-2.2,0.5-3.4,0.7c-0.5,0.1-1,0.2-1.5,0.3c-0.8,0.2-1.6,0.3-2.4,0.5c-0.6,0.1-1.1,0.2-1.7,0.3
		c-0.8,0.2-1.5,0.3-2.3,0.5c-0.6,0.1-1.1,0.2-1.7,0.3C336.9,31.7,336.4,31.8,335.9,31.9z M291.8,212.5c0.1,0.1,0.2,0.3,0.3,0.4
		c0.8,0.7,1.6,1.4,2.5,2.1c1.4,1.2,2.9,2.4,4.3,3.6c2.1,1.8,4.3,3.6,6.4,5.4c1.6,1.4,3.2,2.7,4.8,4.1c1.2,1,2.3,1.9,3.5,2.9
		c0.2,0.2,0.4,0.3,0.7,0.4c0.7,0.2,1.5,0.4,2.3,0.5c0.5,0.1,1.1,0.2,1.6,0.4c0.8,0.2,1.5,0.3,2.3,0.5c0.7,0.1,1.3,0.3,2,0.4
		c0.8,0.1,1.7,0.2,2.6,0.3c0.9,0.1,1.9,0.3,2.8,0.4c0.8,0.1,1.6,0.2,2.4,0.2c1.8,0.1,3.5,0.3,5.3,0.3c4.2,0.1,8.5,0.2,12.7-0.2
		c1.3-0.1,2.7-0.2,4-0.3c0,0,0.1,0,0.1,0c1.2-0.2,2.3-0.3,3.5-0.5c0.5-0.1,0.8-0.2,1.2-0.6c0.7-0.7,1.3-1.3,2-2
		c1.2-1.2,2.5-2.5,3.7-3.7c1-1,1.9-1.9,2.9-2.9c1-0.9,1.9-1.9,2.9-2.8c1-1,2-2,2.9-3c0.8-0.8,1.7-1.7,2.5-2.5c0.2-0.2,0.2-0.3,0-0.5
		c-0.1-0.1-0.2-0.2-0.3-0.3c-1.8-1.5-3.5-3.1-5.3-4.6c-2.6-2.3-5.1-4.5-7.7-6.8c-1.5-1.3-3-2.6-4.4-3.9c-1.4-1.2-2.7-2.4-4.1-3.7
		c-0.5-0.4-1-0.6-1.7-0.6c-5.8,0.1-11.5,0.2-17.3,0.2c-8.8,0-17.5,0.1-26.3,0.1c-0.5,0-0.9,0.2-1.2,0.6c-0.6,0.8-1.3,1.5-1.9,2.3
		c-1.3,1.5-2.5,2.9-3.8,4.4c-2.1,2.5-4.2,5-6.3,7.4C292.9,211.1,292.4,211.8,291.8,212.5z M260.7,75c0.3,0,0.4,0,0.6,0
		c3.5-0.1,6.9-0.1,10.4-0.2c4.5-0.2,8.9,0,13.4-0.3c1.8-0.1,3.6-0.1,5.4-0.1c1,0,1.9-0.2,2.8-0.8c2.1-1.3,4.3-2.5,6.4-3.8
		c2.1-1.2,4.2-2.5,6.3-3.7c1.9-1.1,3.7-2.2,5.5-3.3c2.3-1.4,4.6-2.7,6.8-4.1c1.9-1.1,3.7-2.2,5.6-3.3c1.7-1,3.4-2,5.1-3
		c0.3-0.2,0.5-0.4,0.5-0.8c0.2-0.9,0.3-1.9,0.5-2.8c0.1-1,0.2-2.1,0.3-3.1c0-0.1,0-0.2,0-0.3c0.1-0.8,0.3-1.7,0.4-2.5
		c0.1-1,0.2-2.1,0.3-3.1c0-0.1,0-0.2,0-0.3c0.2-1,0.3-1.9,0.5-2.9c0.2-1.1,0.3-2.2,0.5-3.3c0.1-0.4,0.1-0.9,0.1-1.3
		c0-0.1-0.1-0.4-0.2-0.4c-0.3-0.1-0.7-0.2-1-0.3c-0.7-0.2-1.3-0.4-2-0.6c-1.1-0.3-2.1-0.7-3.2-1.1c-0.7-0.2-1.4-0.3-2-0.6
		c-0.7-0.3-1.3-0.2-1.9-0.1c-0.4,0.1-0.7,0.2-1.1,0.2c-1,0.2-2,0.4-3.1,0.6c-0.3,0.1-0.5,0.2-0.8,0.2c-0.6,0.1-1.2,0.2-1.7,0.4
		c-0.4,0.1-0.8,0.2-1.1,0.3c-0.5,0.1-1,0.3-1.4,0.4c-0.8,0.2-1.7,0.4-2.5,0.7c-0.8,0.2-1.6,0.5-2.4,0.8c-1.2,0.4-2.4,0.7-3.6,1.2
		c-1,0.4-2,0.9-3.1,1.2c-1.5,0.5-2.9,1.2-4.3,1.8c-1.6,0.7-3.2,1.5-4.8,2.4c-1.8,0.9-3.6,1.9-5.3,2.9c-1.2,0.7-2.4,1.5-3.6,2.3
		c-1.8,1.2-3.6,2.4-5.4,3.7c-1.6,1.2-3.1,2.5-4.7,3.7c-2.2,1.7-4.2,3.6-6.2,5.6c-1.1,1.1-2.2,2.2-3.2,3.3c-0.5,0.5-0.9,1-1.4,1.6
		c-0.3,0.3-0.5,0.7-0.5,1.2c0,0.9-0.2,1.9-0.2,2.8c-0.1,1.8-0.2,3.5-0.4,5.3c0,0.4-0.1,0.9-0.1,1.3C260.8,73.4,260.8,74.2,260.7,75z
		 M431.3,115.9c-0.1,0.3-0.3,0.5-0.4,0.8c-0.5,1.1-0.9,2.2-1.4,3.4c-0.6,1.4-1.3,2.8-1.9,4.3c-0.5,1.1-0.9,2.3-1.4,3.4
		c-0.6,1.5-1.3,3-1.9,4.4c-0.5,1.1-0.9,2.2-1.4,3.3c-0.6,1.4-1.3,2.8-1.9,4.2c-0.8,1.9-1.7,3.8-2.5,5.8c-0.9,2-1.7,4-2.5,6
		c-0.5,1.2-1.1,2.4-1.6,3.7c-0.2,0.5-0.5,1-0.5,1.5c-0.1,0.6,0,1.3,0,2c0.1,1.1,0.3,2.2,0.4,3.3c0.1,1.2,0.2,2.3,0.4,3.5
		c0,0,0,0.1,0,0.1c0.1,1.1,0.3,2.2,0.4,3.3c0.2,1.3,0.3,2.5,0.4,3.8c0.2,1.9,0.5,3.7,0.7,5.6c0.2,1.5,0.4,3.1,0.5,4.6
		c0.1,1,0.2,2.1,0.3,3.1c0,0.3,0.2,0.5,0.4,0.6c0.4,0.1,0.9,0.2,1.3,0.3c0.5,0.1,1.1,0.2,1.6,0.3c0.9,0.2,1.9,0.5,2.8,0.7
		c1,0.3,2,0.5,3.1,0.7c0.8-1.2,1.7-2.5,2.4-3.8c1-1.7,2-3.5,2.9-5.2c1.3-2.3,2.5-4.8,3.5-7.2c0.6-1.4,1.2-2.9,1.7-4.3
		c0.6-1.4,1.1-2.9,1.6-4.4c0.3-1,0.6-2,0.9-3c0.3-1.1,0.7-2.2,1-3.3c0.2-0.9,0.4-1.8,0.6-2.7c0.1-0.5,0.2-0.9,0.3-1.4
		c0.2-0.6,0.3-1.3,0.5-1.9c0.2-0.9,0.3-1.8,0.5-2.7c0.1-0.7,0.3-1.4,0.4-2.1c0.1-1,0.2-2.1,0.4-3.2c0.1-1.1,0.4-2.3,0.4-3.4
		c0.1-2.3,0.2-4.6,0.3-6.9c0-1.3,0-2.6,0-3.9c0-2.1-0.1-4.2-0.3-6.3c-0.1-1.3-0.2-2.6-0.3-3.9c0,0,0-0.1,0-0.1
		c-0.2-1.1-0.3-2.3-0.5-3.4c-0.1-0.6-0.1-0.6-0.7-0.6c-1.5,0.1-2.9,0.3-4.4,0.4c-1.4,0.1-2.8,0.2-4.2,0.3
		C432.8,115.7,432,115.8,431.3,115.9z M424.1,191.9c-0.3-0.1-0.4-0.2-0.6-0.2c-0.6-0.2-1.2-0.3-1.9-0.4c-0.5-0.1-1-0.2-1.5-0.3
		c-0.6-0.1-1.2-0.3-1.8-0.4c-0.6-0.1-1.2-0.3-1.7-0.4c-0.6-0.2-1.2-0.2-1.7,0.3c-0.2,0.1-0.3,0.3-0.5,0.4c-1.8,1.3-3.6,2.6-5.5,3.9
		c-1.4,1-2.7,2-4.1,3c-1.3,1-2.7,1.9-4,2.9c-1.2,0.9-2.5,1.9-3.7,2.8c-1.3,0.9-2.5,1.8-3.8,2.7c-1.8,1.3-3.5,2.6-5.3,3.9
		c-1.6,1.2-3.3,2.3-4.9,3.5c-1.6,1.2-3.2,2.3-4.8,3.5c-0.9,0.7-1.9,1.4-2.7,2.2c-0.8,0.9-1.7,1.7-2.5,2.5c-1.5,1.5-3.1,3-4.6,4.5
		c-1.3,1.3-2.6,2.6-3.9,3.9c-0.5,0.5-1.1,1.1-1.6,1.7c0,0,0,0.1,0.1,0.1c0.5-0.1,1.1-0.2,1.6-0.4c0.9-0.2,1.7-0.5,2.6-0.7
		c0.8-0.2,1.7-0.4,2.5-0.7c0.8-0.2,1.5-0.5,2.3-0.7c0.6-0.2,1.3-0.4,1.9-0.6c0.9-0.3,1.8-0.7,2.8-1.1c1.4-0.5,2.7-1,4.1-1.6
		c1.8-0.8,3.6-1.7,5.5-2.5c2.4-1.1,4.7-2.4,7-3.8c1.2-0.7,2.3-1.4,3.4-2.1c1.9-1.2,3.7-2.5,5.5-3.8c2.2-1.7,4.4-3.4,6.5-5.2
		c2.1-1.8,4.1-3.8,6-5.7c1.9-1.9,3.7-3.9,5.4-6c1-1.2,2-2.5,3-3.8C423.5,192.8,423.7,192.4,424.1,191.9z M236.9,118c0,0-0.1,0-0.1,0
		c-0.1,0.2-0.1,0.4-0.2,0.6c-0.1,1.1-0.3,2.2-0.4,3.3c-0.1,1.8-0.2,3.7-0.3,5.6c0,1,0,2,0,3c0,1.9,0,3.8,0.1,5.6
		c0.1,1.8,0.3,3.5,0.5,5.3c0.1,1.4,0.3,2.9,0.5,4.3c0.1,0.8,0.3,1.6,0.4,2.4c0.1,0.7,0.2,1.5,0.3,2.2c0.1,0.5,0.2,1,0.3,1.5
		c0.1,0.6,0.3,1.2,0.4,1.8c0.2,1,0.4,1.9,0.7,2.9c0.2,0.9,0.5,1.7,0.7,2.6c0.3,1.1,0.6,2.2,0.9,3.2c0.5,1.5,1,2.9,1.5,4.4
		c0.5,1.4,1.1,2.8,1.7,4.2c0.8,1.9,1.7,3.8,2.6,5.7c0.6,1.3,1.3,2.6,2,3.9c1,1.7,2,3.4,3,5.1c0.3,0.6,0.7,1.1,1.1,1.7
		c0.1,0.2,0.2,0.4,0.5,0.3c0.9-0.3,1.8-0.6,2.7-0.9c0-0.1,0.1-0.3,0-0.4c-0.1-0.4-0.2-0.8-0.2-1.2c-0.1-0.8-0.2-1.7-0.3-2.5
		c0-0.1,0-0.2-0.1-0.3c-0.1-0.8-0.3-1.6-0.4-2.4c-0.1-0.8-0.2-1.7-0.4-2.5c-0.2-1.4-0.5-2.9-0.7-4.3c-0.2-1.4-0.4-2.8-0.6-4.2
		c-0.1-0.7-0.2-1.3-0.3-2c-0.1-0.6-0.2-1.3-0.3-1.9c-0.1-0.8-0.3-1.5-0.4-2.3c-0.1-0.8-0.2-1.7-0.3-2.6c0-0.1,0-0.2-0.1-0.3
		c-0.1-0.8-0.3-1.6-0.4-2.5c-0.1-0.8-0.2-1.6-0.3-2.4c-0.1-0.3-0.1-0.7-0.3-1c-0.3-0.9-0.7-1.7-1.1-2.6c-0.4-1.1-0.8-2.2-1.2-3.2
		c-0.4-1.1-0.9-2.3-1.3-3.4c-0.4-1.1-0.9-2.2-1.3-3.4c-0.4-1.1-0.8-2.2-1.2-3.2c-0.2-0.6-0.4-1.1-0.6-1.7c-0.3-0.9-0.7-1.7-1.1-2.6
		c-0.4-1.1-0.8-2.2-1.2-3.3c-0.4-1.2-0.9-2.4-1.4-3.6c-0.4-1-0.8-2.1-1.2-3.1c-0.4-1.1-0.8-2.2-1.3-3.3
		C237.5,119.6,237.2,118.8,236.9,118z M289,215.6c-0.1,0-0.1,0-0.1-0.1c-1.4-1.2-2.9-2.4-4.3-3.5c-1.4-1.1-2.8-2.3-4.2-3.4
		c-2-1.6-4-3.3-6-4.9c-1.6-1.3-3.3-2.7-4.9-4c-1.1-0.9-2.2-1.8-3.3-2.7c-1.2-1-2.5-2-3.7-3c-1.4-1.2-2.8-2.3-4.2-3.5
		c-0.4-0.3-0.8-0.6-1.3-0.3c0,0-0.1,0-0.2,0c-0.6,0.2-1.2,0.4-1.9,0.6c1.6,2,3,4,4.5,5.9c1.8,2.1,3.6,4.2,5.5,6.1
		c1.5,1.5,3,3,4.5,4.4c1.1,1.1,2.3,2.1,3.5,3c1.5,1.3,3.1,2.5,4.7,3.7c1.1,0.9,2.3,1.7,3.5,2.5c2.6,1.8,5.4,3.5,8.2,5
		c1.5,0.8,3.1,1.6,4.7,2.4c1.3,0.7,2.7,1.3,4,1.9c1.2,0.5,2.4,1,3.6,1.5c0.6,0.2,1.1,0.5,1.7,0.7c0.4,0.1,0.7,0.4,1.3,0.2
		c-5.1-4.3-10.2-8.6-15.3-12.9C289.2,215.5,289.1,215.5,289,215.6z M397.7,44.9c4.2,3.5,8.3,7,12.7,10c0.1,0.1,0.2,0,0.3,0.1
		C409.5,53.3,399,45.1,397.7,44.9z"/>
	<path class="st3" d="M328.3,192.1c-7.2,0-14.5,0-21.7,0c-0.2,0-0.4,0-0.6,0c-0.4,0.1-0.6-0.2-0.8-0.5c-0.5-0.9-1.1-1.9-1.6-2.8
		c-1.4-2.5-2.8-5-4.3-7.5c-1.1-1.9-2.2-3.8-3.3-5.7c-1.3-2.3-2.7-4.7-4-7c-1.2-2.1-2.3-4.1-3.5-6.2c-1.1-2-2.2-3.9-3.4-5.9
		c-0.1-0.2-0.1-0.3,0-0.6c1.3-2.3,2.7-4.7,4-7.1c1.1-1.9,2.2-3.9,3.3-5.8c1.1-1.9,2.2-3.9,3.3-5.8c1.1-1.9,2.2-3.9,3.3-5.8
		c1.1-1.9,2.2-3.9,3.3-5.8c1.4-2.4,2.8-4.8,4.2-7.3c0.5-0.9,0.5-0.9,1.6-0.9c3.2,0.1,6.4,0.2,9.6,0.3c2.5,0.1,5.1,0.2,7.6,0.2
		c3.1,0.1,6.2,0.2,9.3,0.3c4.4,0.2,8.9,0.3,13.3,0.5c0.4,0,0.7,0.1,0.9,0.5c1.1,1.7,2.2,3.4,3.3,5.1c0.9,1.4,1.8,2.8,2.8,4.2
		c1,1.6,2,3.1,3,4.7c1.6,2.5,3.2,5.1,4.9,7.6c1.6,2.4,3.1,4.8,4.7,7.2c0.9,1.5,1.9,2.9,2.8,4.4c0.7,1.1,1.4,2.3,2.2,3.4
		c0.3,0.4,0.3,0.8,0,1.2c-1.3,2-2.5,4-3.8,6c-0.7,1.1-1.3,2.3-2,3.4c-1.2,2-2.5,4-3.8,6.1c-0.7,1.2-1.5,2.4-2.2,3.6
		c-0.9,1.5-1.9,3.1-2.8,4.6c-1,1.6-1.9,3.2-2.9,4.8c-1.1,1.8-2.2,3.5-3.3,5.4c-0.4,0.7-0.8,0.9-1.6,0.9
		C342.9,191.9,335.6,192,328.3,192.1C328.3,192.1,328.3,192.1,328.3,192.1z"/>
	<path class="st3" d="M404.9,76.9c0.3,0.5,0.6,1,1,1.5c0.9,1.5,1.8,3.1,2.7,4.6c1.1,1.8,2.2,3.7,3.3,5.5c1.4,2.3,2.8,4.6,4.2,6.9
		c0.8,1.4,1.6,2.7,2.4,4.1c0.9,1.5,1.8,3,2.7,4.5c0.7,1.2,1.4,2.4,2.1,3.5c1,1.7,2,3.4,3,5c0.4,0.6,0.7,1.2,1.1,1.8
		c0.2,0.3,0.2,0.7,0.1,1c-0.8,1.8-1.6,3.6-2.4,5.4c-0.5,1.1-0.9,2.3-1.4,3.4c-0.6,1.4-1.2,2.8-1.9,4.3c-0.5,1.1-1,2.3-1.5,3.4
		c-0.6,1.5-1.3,2.9-1.9,4.4c-0.5,1.1-0.9,2.3-1.4,3.4c-0.6,1.4-1.3,2.9-1.9,4.3c-0.5,1.1-0.9,2.3-1.4,3.4c-0.6,1.4-1.3,2.9-1.9,4.3
		c-0.2,0.5-0.4,1-0.6,1.5c-0.1,0.3-0.3,0.5-0.6,0.5c-0.1,0-0.1,0-0.2,0c-7.8,0.1-15.7,0.2-23.5,0.3c-3.5,0.1-7,0.1-10.5,0.2
		c-0.6,0-0.9-0.2-1.2-0.7c-1-1.7-2.1-3.3-3.2-5c-1-1.5-1.9-3-2.9-4.6c-1.5-2.4-3.1-4.8-4.6-7.1c-1.4-2.2-2.8-4.3-4.2-6.5
		c-1.2-1.9-2.5-3.9-3.7-5.8c-0.9-1.4-1.9-2.9-2.8-4.3c-0.7-1-1.3-2.1-2-3.1c-0.2-0.3-0.2-0.6-0.1-0.9c0.5-1.3,1-2.5,1.5-3.8
		c0.4-1,0.8-2.1,1.2-3.1c0.4-1.1,0.9-2.1,1.3-3.2c0.5-1.2,1-2.4,1.4-3.7c0.5-1.3,1-2.6,1.5-3.9c0.3-0.8,0.7-1.7,1-2.5
		c0.4-1.1,0.9-2.1,1.3-3.2c0.4-1,0.8-2,1.2-3c0.4-0.9,0.7-1.8,1.1-2.7c0.2-0.5,0.4-1.1,0.6-1.7c0.3-0.8,0.7-1.6,1-2.5
		c0.2-0.5,0.4-1.1,0.6-1.6c0.3-0.9,0.8-1.7,1-2.6c0.2-0.8,0.7-0.8,1.4-0.9c3-0.3,6.1-0.2,9.1-0.2c4.2-0.1,8.3-0.2,12.5-0.3
		c3.6-0.1,7.1-0.2,10.7-0.3c1.3,0,2.7-0.1,4-0.2C404.4,76.9,404.6,76.9,404.9,76.9z"/>
	<path class="st3" d="M253.1,150.9c-0.6-1.6-1.1-3.1-1.7-4.7c-0.6-1.6-1.3-3.2-1.9-4.9c-0.4-1.1-0.8-2.2-1.2-3.3
		c-0.7-1.8-1.4-3.7-2.1-5.5c-0.4-1.1-0.8-2.2-1.2-3.3c-0.3-0.8-0.6-1.6-0.9-2.4c-0.3-0.9-0.7-1.8-1-2.7c-0.4-1.1-0.8-2.2-1.2-3.2
		c-0.4-1.1-0.8-2.3-1.3-3.4c-0.2-0.6-0.5-1.2-0.7-1.8c-0.1-0.2-0.1-0.5-0.1-0.8c0.2-0.6,0.4-1.1,0.7-1.7c0.7-1.3,1.4-2.6,2.1-3.9
		c0.7-1.3,1.4-2.6,2.1-3.8c1-1.8,2-3.5,3-5.3c1.2-2.2,2.4-4.4,3.7-6.5c1-1.8,2-3.5,3-5.3c1.6-2.8,3.2-5.7,4.8-8.6
		c0.5-1,1.1-1.4,2.3-1.4c2.7,0.1,5.4,0,8.2-0.1c4.4-0.1,8.8-0.2,13.2-0.3c2.5-0.1,5-0.1,7.5-0.2c0.2,0,0.5,0,0.8,0
		c0.2,0.6,0.4,1.2,0.6,1.7c0.2,0.7,0.4,1.3,0.7,2c0.3,1,0.7,1.9,1,2.9c0.3,1,0.7,2,1.1,3c0.2,0.6,0.4,1.2,0.6,1.8
		c0.2,0.7,0.5,1.5,0.8,2.2c0.3,0.9,0.6,1.8,0.9,2.7c0.4,1,0.7,2,1.1,3.1c0.2,0.7,0.4,1.3,0.6,2c0.4,1.2,0.8,2.3,1.2,3.5
		c0.4,1.3,0.8,2.5,1.3,3.8c0.3,0.9,0.7,1.8,1,2.8c0.2,0.6,0.4,1.3,0.6,1.9c0.3,1,0.7,1.9,1,2.8c0.1,0.4,0.3,0.7,0.4,1.1
		c0.1,0.4,0.1,0.7-0.1,1.1c-1,1.7-1.9,3.4-2.9,5c-1.5,2.7-3.1,5.4-4.6,8.1c-1.1,1.9-2.1,3.7-3.2,5.6c-1.1,2-2.3,4-3.4,6
		c-1.1,1.9-2.1,3.7-3.2,5.6c-1.1,1.9-2.2,3.9-3.3,5.8c-0.2,0.4-0.5,0.6-1,0.6c-1.8-0.2-3.6-0.3-5.3-0.4c-0.1,0-0.1,0-0.2,0
		c-1.8-0.1-3.7-0.3-5.5-0.4c-1.8-0.1-3.6-0.3-5.4-0.4c-0.1,0-0.2,0-0.3,0c-2-0.1-4-0.3-6-0.4c-1.6-0.1-3.3-0.3-4.9-0.4
		C254,151,253.6,151,253.1,150.9z"/>
	<path class="st3" d="M335.9,31.9c0.5-0.1,0.9-0.2,1.4-0.3c0.6-0.1,1.1-0.2,1.7-0.3c0.8-0.2,1.5-0.3,2.3-0.5
		c0.6-0.1,1.1-0.2,1.7-0.3c0.8-0.2,1.6-0.3,2.4-0.5c0.5-0.1,1-0.2,1.5-0.3c1.1-0.2,2.2-0.5,3.4-0.7c0.6-0.1,1.3-0.2,1.9-0.3
		c0.5-0.1,1-0.3,1.6-0.2c0.9,0.1,1.8,0.3,2.7,0.4c0.1,0,0.2,0,0.3,0.1c1.8,0.3,3.5,0.6,5.3,0.9c1.2,0.2,2.5,0.5,3.7,0.9
		c1.1,0.3,2.3,0.7,3.4,1c0.7,0.2,1.5,0.4,2.2,0.6c0.9,0.3,1.9,0.6,2.8,0.9c0.7,0.2,1.3,0.5,2,0.7c1.1,0.4,2.1,0.8,3.2,1.2
		c1,0.4,2,0.8,3,1.3c1.4,0.7,2.9,1.3,4.3,2c0.4,0.2,0.7,0.5,1.1,0.8c1.5,1.3,3.1,2.5,4.6,3.8c1.5,1.2,2.9,2.5,4.4,3.7
		c1.8,1.5,3.7,3,5.6,4.6c0.6,0.5,1.2,1,1.8,1.5c0.3,0.2,0.3,0.5,0.4,0.7c0,0.4,0,0.7,0,1.1c0,6,0,11.9,0,17.9c0,1.1,0,1.1-1.1,1.1
		c-3.9,0.1-7.8,0.1-11.7,0.3c-3.5,0.2-6.9,0.1-10.4,0.2c-3.6,0.1-7.3,0.2-10.9,0.3c-0.7,0-1.4,0-2.1,0.1c-0.7,0.1-1.3-0.1-1.9-0.5
		c-1.2-0.7-2.4-1.5-3.6-2.3c-1.6-1-3.3-2.1-4.9-3.1c-2.4-1.5-4.8-3-7.3-4.5c-2.2-1.4-4.4-2.8-6.6-4.2c-2.2-1.4-4.3-2.7-6.5-4.1
		c-1.3-0.8-2.6-1.7-3.9-2.5c-0.2-0.1-0.3-0.3-0.3-0.5c0-0.2,0-0.5,0.1-0.7c0.2-1.3,0.4-2.6,0.5-3.9c0.1-0.9,0.3-1.8,0.5-2.7
		c0.1-0.7,0.2-1.3,0.3-2c0.1-1,0.2-2,0.3-3c0.1-0.9,0.3-1.8,0.4-2.7c0-0.1,0-0.2,0.1-0.3c0.1-1,0.2-2,0.3-3c0-0.3,0.2-0.7,0.2-1
		C335.9,32.9,335.9,32.4,335.9,31.9z"/>
	<path class="st3" d="M291.8,212.5c0.6-0.7,1.1-1.4,1.7-2c2.1-2.5,4.2-5,6.3-7.4c1.2-1.5,2.5-2.9,3.8-4.4c0.6-0.7,1.3-1.5,1.9-2.3
		c0.3-0.4,0.7-0.6,1.2-0.6c8.8,0,17.5,0,26.3-0.1c5.8,0,11.5-0.1,17.3-0.2c0.7,0,1.2,0.2,1.7,0.6c1.4,1.2,2.7,2.5,4.1,3.7
		c1.5,1.3,3,2.6,4.4,3.9c2.6,2.3,5.1,4.5,7.7,6.8c1.8,1.5,3.5,3.1,5.3,4.6c0.1,0.1,0.2,0.2,0.3,0.3c0.2,0.2,0.2,0.3,0,0.5
		c-0.8,0.8-1.7,1.6-2.5,2.5c-1,1-2,2-2.9,3c-1,1-1.9,1.9-2.9,2.8c-1,1-1.9,1.9-2.9,2.9c-1.2,1.2-2.5,2.5-3.7,3.7
		c-0.7,0.7-1.3,1.3-2,2c-0.3,0.3-0.7,0.5-1.2,0.6c-1.2,0.1-2.3,0.3-3.5,0.5c0,0-0.1,0-0.1,0c-1.3,0.1-2.7,0.2-4,0.3
		c-4.2,0.4-8.5,0.3-12.7,0.2c-1.8,0-3.5-0.2-5.3-0.3c-0.8-0.1-1.6-0.1-2.4-0.2c-0.9-0.1-1.9-0.3-2.8-0.4c-0.8-0.1-1.7-0.2-2.6-0.3
		c-0.7-0.1-1.3-0.2-2-0.4c-0.8-0.1-1.6-0.3-2.3-0.5c-0.5-0.1-1.1-0.2-1.6-0.4c-0.8-0.2-1.5-0.3-2.3-0.5c-0.2-0.1-0.5-0.2-0.7-0.4
		c-1.2-1-2.3-1.9-3.5-2.9c-1.6-1.4-3.2-2.7-4.8-4.1c-2.1-1.8-4.3-3.6-6.4-5.4c-1.4-1.2-2.9-2.4-4.3-3.6c-0.8-0.7-1.7-1.4-2.5-2.1
		C292,212.7,291.9,212.6,291.8,212.5z"/>
	<path class="st3" d="M260.7,75c0.1-0.8,0.1-1.5,0.2-2.2c0-0.4,0.1-0.9,0.1-1.3c0.1-1.8,0.2-3.5,0.4-5.3c0.1-0.9,0.2-1.9,0.2-2.8
		c0-0.5,0.2-0.8,0.5-1.2c0.5-0.5,0.9-1,1.4-1.6c1.1-1.1,2.1-2.2,3.2-3.3c2-2,4-3.8,6.2-5.6c1.6-1.3,3.1-2.6,4.7-3.7
		c1.7-1.3,3.6-2.5,5.4-3.7c1.2-0.8,2.4-1.6,3.6-2.3c1.8-1,3.5-2,5.3-2.9c1.6-0.8,3.2-1.6,4.8-2.4c1.4-0.6,2.8-1.3,4.3-1.8
		c1.1-0.3,2-0.9,3.1-1.2c1.2-0.4,2.4-0.8,3.6-1.2c0.8-0.3,1.6-0.5,2.4-0.8c0.8-0.2,1.6-0.4,2.5-0.7c0.5-0.1,1-0.3,1.4-0.4
		c0.4-0.1,0.8-0.2,1.1-0.3c0.6-0.1,1.2-0.2,1.7-0.4c0.3-0.1,0.5-0.2,0.8-0.2c1-0.2,2-0.4,3.1-0.6c0.4-0.1,0.7-0.2,1.1-0.2
		c0.7-0.1,1.3-0.2,1.9,0.1c0.6,0.3,1.3,0.4,2,0.6c1.1,0.3,2.1,0.7,3.2,1.1c0.7,0.2,1.3,0.4,2,0.6c0.4,0.1,0.7,0.2,1,0.3
		c0.1,0.1,0.2,0.3,0.2,0.4c0,0.4,0,0.9-0.1,1.3c-0.1,1.1-0.3,2.2-0.5,3.3c-0.1,1-0.3,1.9-0.5,2.9c0,0.1,0,0.2,0,0.3
		c-0.1,1-0.2,2.1-0.3,3.1c-0.1,0.8-0.3,1.7-0.4,2.5c0,0.1,0,0.2,0,0.3c-0.1,1-0.2,2.1-0.3,3.1c-0.1,0.9-0.3,1.9-0.5,2.8
		c-0.1,0.3-0.2,0.6-0.5,0.8c-1.7,1-3.4,2-5.1,3c-1.9,1.1-3.7,2.2-5.6,3.3c-2.3,1.4-4.6,2.7-6.8,4.1c-1.8,1.1-3.7,2.2-5.5,3.3
		c-2.1,1.2-4.2,2.5-6.3,3.7c-2.1,1.3-4.3,2.5-6.4,3.8c-0.9,0.6-1.8,0.8-2.8,0.8c-1.8,0-3.6-0.1-5.4,0.1c-4.5,0.3-8.9,0.1-13.4,0.3
		c-3.5,0.1-6.9,0.1-10.4,0.2C261.1,75,261,75,260.7,75z"/>
	<path class="st3" d="M431.3,115.9c0.8-0.1,1.5-0.2,2.2-0.2c1.4-0.1,2.8-0.2,4.2-0.3c1.5-0.1,2.9-0.3,4.4-0.4c0.6-0.1,0.6,0,0.7,0.6
		c0.1,1.1,0.3,2.3,0.5,3.4c0,0,0,0.1,0,0.1c0.1,1.3,0.2,2.6,0.3,3.9c0.2,2.1,0.3,4.2,0.3,6.3c0,1.3,0,2.6,0,3.9
		c-0.1,2.3-0.2,4.6-0.3,6.9c-0.1,1.1-0.3,2.3-0.4,3.4c-0.1,1-0.2,2.1-0.4,3.2c-0.1,0.7-0.2,1.4-0.4,2.1c-0.2,0.9-0.3,1.8-0.5,2.7
		c-0.1,0.6-0.3,1.3-0.5,1.9c-0.1,0.5-0.2,0.9-0.3,1.4c-0.2,0.9-0.4,1.8-0.6,2.7c-0.3,1.1-0.6,2.2-1,3.3c-0.3,1-0.6,2-0.9,3
		c-0.5,1.5-1,2.9-1.6,4.4c-0.6,1.4-1.1,2.9-1.7,4.3c-1.1,2.5-2.2,4.9-3.5,7.2c-1,1.7-1.9,3.5-2.9,5.2c-0.8,1.3-1.6,2.5-2.4,3.8
		c-1-0.2-2.1-0.5-3.1-0.7c-0.9-0.2-1.9-0.5-2.8-0.7c-0.5-0.1-1.1-0.2-1.6-0.3c-0.5-0.1-0.9-0.2-1.3-0.3c-0.3-0.1-0.4-0.3-0.4-0.6
		c-0.1-1-0.2-2.1-0.3-3.1c-0.2-1.5-0.3-3.1-0.5-4.6c-0.2-1.9-0.5-3.7-0.7-5.6c-0.2-1.3-0.3-2.5-0.4-3.8c-0.1-1.1-0.3-2.2-0.4-3.3
		c0,0,0-0.1,0-0.1c-0.1-1.2-0.2-2.3-0.4-3.5c-0.1-1.1-0.3-2.2-0.4-3.3c-0.1-0.7-0.1-1.3,0-2c0.1-0.5,0.3-1,0.5-1.5
		c0.5-1.2,1.1-2.4,1.6-3.7c0.9-2,1.7-4,2.5-6c0.8-1.9,1.6-3.9,2.5-5.8c0.6-1.4,1.3-2.8,1.9-4.2c0.5-1.1,0.9-2.2,1.4-3.3
		c0.6-1.5,1.3-3,1.9-4.4c0.5-1.1,0.9-2.3,1.4-3.4c0.6-1.4,1.3-2.8,1.9-4.3c0.5-1.1,0.9-2.2,1.4-3.4
		C431,116.4,431.2,116.2,431.3,115.9z"/>
	<path class="st3" d="M424.1,191.9c-0.3,0.5-0.6,0.9-0.9,1.2c-1,1.3-2,2.5-3,3.8c-1.7,2.1-3.5,4.1-5.4,6c-1.9,2-3.9,3.9-6,5.7
		c-2.1,1.8-4.2,3.6-6.5,5.2c-1.8,1.3-3.7,2.6-5.5,3.8c-1.1,0.7-2.2,1.4-3.4,2.1c-2.3,1.3-4.6,2.7-7,3.8c-1.8,0.8-3.6,1.7-5.5,2.5
		c-1.3,0.6-2.7,1.1-4.1,1.6c-0.9,0.4-1.8,0.7-2.8,1.1c-0.6,0.2-1.3,0.4-1.9,0.6c-0.8,0.2-1.5,0.5-2.3,0.7c-0.8,0.2-1.6,0.4-2.5,0.7
		c-0.9,0.2-1.7,0.5-2.6,0.7c-0.5,0.1-1.1,0.2-1.6,0.4c0,0,0-0.1-0.1-0.1c0.5-0.6,1.1-1.1,1.6-1.7c1.3-1.3,2.6-2.6,3.9-3.9
		c1.5-1.5,3.1-3,4.6-4.5c0.8-0.8,1.7-1.6,2.5-2.5c0.8-0.9,1.8-1.5,2.7-2.2c1.6-1.2,3.2-2.3,4.8-3.5c1.6-1.2,3.3-2.3,4.9-3.5
		c1.8-1.3,3.5-2.6,5.3-3.9c1.2-0.9,2.5-1.8,3.8-2.7c1.3-0.9,2.5-1.8,3.7-2.8c1.3-1,2.7-2,4-2.9c1.4-1,2.7-2,4.1-3
		c1.8-1.3,3.6-2.6,5.5-3.9c0.2-0.1,0.3-0.3,0.5-0.4c0.5-0.4,1.1-0.4,1.7-0.3c0.6,0.2,1.1,0.3,1.7,0.4c0.6,0.2,1.2,0.3,1.8,0.4
		c0.5,0.1,1,0.2,1.5,0.3c0.6,0.1,1.2,0.3,1.9,0.4C423.7,191.7,423.8,191.8,424.1,191.9z"/>
	<path class="st3" d="M236.9,118c0.3,0.8,0.6,1.6,0.9,2.4c0.4,1.1,0.8,2.2,1.3,3.3c0.4,1,0.8,2.1,1.2,3.1c0.5,1.2,0.9,2.4,1.4,3.6
		c0.4,1.1,0.8,2.2,1.2,3.3c0.3,0.9,0.7,1.7,1.1,2.6c0.2,0.5,0.4,1.1,0.6,1.7c0.4,1.1,0.8,2.2,1.2,3.2c0.4,1.1,0.8,2.3,1.3,3.4
		c0.4,1.1,0.9,2.3,1.3,3.4c0.4,1.1,0.8,2.2,1.2,3.2c0.3,0.9,0.7,1.7,1.1,2.6c0.1,0.3,0.2,0.7,0.3,1c0.1,0.8,0.2,1.6,0.3,2.4
		c0.1,0.8,0.3,1.6,0.4,2.5c0,0.1,0.1,0.2,0.1,0.3c0.1,0.9,0.2,1.7,0.3,2.6c0.1,0.8,0.3,1.5,0.4,2.3c0.1,0.6,0.2,1.3,0.3,1.9
		c0.1,0.7,0.2,1.3,0.3,2c0.2,1.4,0.4,2.8,0.6,4.2c0.2,1.4,0.5,2.9,0.7,4.3c0.1,0.8,0.2,1.7,0.4,2.5c0.1,0.8,0.3,1.6,0.4,2.4
		c0,0.1,0,0.2,0.1,0.3c0.1,0.8,0.2,1.7,0.3,2.5c0.1,0.4,0.2,0.8,0.2,1.2c0,0.1,0,0.3,0,0.4c-0.9,0.3-1.8,0.6-2.7,0.9
		c-0.3,0.1-0.4-0.1-0.5-0.3c-0.4-0.6-0.7-1.1-1.1-1.7c-1-1.7-2-3.4-3-5.1c-0.7-1.3-1.4-2.6-2-3.9c-0.9-1.9-1.7-3.8-2.6-5.7
		c-0.6-1.4-1.1-2.8-1.7-4.2c-0.5-1.4-1.1-2.9-1.5-4.4c-0.3-1.1-0.6-2.1-0.9-3.2c-0.2-0.9-0.5-1.7-0.7-2.6c-0.2-1-0.4-1.9-0.7-2.9
		c-0.1-0.6-0.3-1.2-0.4-1.8c-0.1-0.5-0.2-1-0.3-1.5c-0.1-0.7-0.2-1.5-0.3-2.2c-0.1-0.8-0.3-1.6-0.4-2.4c-0.2-1.4-0.4-2.8-0.5-4.3
		c-0.2-1.8-0.4-3.5-0.5-5.3c-0.1-1.9-0.1-3.8-0.1-5.6c0-1,0-2,0-3c0.1-1.9,0.2-3.7,0.3-5.6c0.1-1.1,0.3-2.2,0.4-3.3
		c0-0.2,0.1-0.4,0.2-0.6C236.8,118,236.8,118,236.9,118z"/>
	<path class="st3" d="M289,215.6c0.1-0.1,0.2-0.1,0.3-0.3c5.1,4.3,10.1,8.5,15.3,12.9c-0.6,0.2-0.9-0.1-1.3-0.2
		c-0.6-0.2-1.1-0.5-1.7-0.7c-1.2-0.5-2.4-0.9-3.6-1.5c-1.4-0.6-2.7-1.2-4-1.9c-1.6-0.8-3.1-1.6-4.7-2.4c-2.8-1.5-5.5-3.2-8.2-5
		c-1.2-0.8-2.4-1.6-3.5-2.5c-1.6-1.2-3.1-2.4-4.7-3.7c-1.2-1-2.4-2-3.5-3c-1.5-1.4-3-2.9-4.5-4.4c-2-1.9-3.8-4-5.5-6.1
		c-1.6-1.9-3-3.9-4.5-5.9c0.7-0.2,1.3-0.4,1.9-0.6c0.1,0,0.1,0,0.2,0c0.5-0.4,0.9-0.1,1.3,0.3c1.4,1.2,2.8,2.3,4.2,3.5
		c1.2,1,2.5,2,3.7,3c1.1,0.9,2.2,1.8,3.3,2.7c1.6,1.3,3.3,2.7,4.9,4c2,1.6,4,3.3,6,4.9c1.4,1.1,2.8,2.3,4.2,3.4
		c1.4,1.2,2.9,2.4,4.3,3.5C288.9,215.6,289,215.6,289,215.6z"/>
	<path class="st3" d="M397.7,44.9c1.2,0.2,11.7,8.4,13,10.1c-0.2,0-0.3,0-0.3-0.1C406,51.9,401.9,48.5,397.7,44.9z"/>
</g>
</svg>
