<?xml version="1.0" encoding="UTF-8"?>
<!DOCTYPE svg PUBLIC "-//W3C//DTD SVG 1.1//EN" "http://www.w3.org/Graphics/SVG/1.1/DTD/svg11.dtd">
<!-- Creator: CorelDRAW 2020 (64 Bit) -->
<svg xmlns="http://www.w3.org/2000/svg" xml:space="preserve" width="110mm" height="123mm" version="1.1" style="shape-rendering:geometricPrecision; text-rendering:geometricPrecision; image-rendering:optimizeQuality; fill-rule:evenodd; clip-rule:evenodd"
viewBox="0 0 110 123"
 xmlns:xlink="http://www.w3.org/1999/xlink"
 xmlns:xodm="http://www.corel.com/coreldraw/odm/2003">
 <defs>
  <style type="text/css">
   <![CDATA[
    .fil0 {fill:#5C5C5C}
    .fil1 {fill:#5C5C5C}
   ]]>
  </style>
 </defs>
 <g id="Camada_x0020_1">
  <metadata id="CorelCorpID_0Corel-Layer"/>
 </g>
 <g id="Camada_x0020_1_0">
  <metadata id="CorelCorpID_1Corel-Layer"/>
  <g id="_2142096146608">
   <path id="_124851560" class="fil0" d="M51.6148 41.1744l0 -38.2544c4.4264,0.1022 8.8358,0.7321 13.126,1.9068 -0.4427,2.6218 0.6809,5.2435 2.8601,6.7587l-12.6663 30.2869c-1.0896,-0.3575 -2.1962,-0.5788 -3.3198,-0.698z"/>
   <path id="_124851488" class="fil0" d="M48.275 41.1744l0 -38.2033c-6.0267,0.3064 -11.9172,1.7876 -17.3821,4.3583l14.1645 34.5089c1.0385,-0.3404 2.111,-0.5618 3.2176,-0.6639z"/>
   <path id="_124851416" class="fil0" d="M42.4981 42.7991l-14.0963 -34.3216c-5.4139,2.7751 -10.2999,6.5205 -14.3858,11.032l25.3666 25.3666c0.9534,-0.8001 1.9919,-1.4981 3.1155,-2.077z"/>
   <path id="_124851344" class="fil0" d="M12.2595 21.5869c-3.7284,4.4264 -6.5544,9.5508 -8.308,15.0498l31.5297 13.1941c0.5447,-1.0726 1.2257,-2.0941 2.0089,-3.0134l-25.2305 -25.2305 -0.0001 0z"/>
   <path id="_124851272" class="fil0" d="M34.3743 52.3672l-31.0869 -13.0068c-0.7151,5.55 -0.5789,11.1681 0.4085,16.6671l29.9463 0c0.1021,-1.2427 0.3575,-2.4685 0.732,-3.6602l0.0001 -0.0001z"/>
   <path id="_124851200" class="fil0" d="M33.6522 58.7759l-29.1802 0c1.7705,4.5967 4.0689,8.955 6.8269,13.0238l23.0513 -9.4657c-0.3575,-1.1577 -0.5958,-2.3494 -0.698,-3.5582l0 0.0001z"/>
   <path id="_124851128" class="fil0" d="M37.5336 67.8023c-0.8172,-0.9533 -1.5152,-1.9918 -2.077,-3.1155l-22.2511 9.1252c3.0984,3.0815 6.5204,5.7884 10.1977,8.1208l14.1304 -14.1305z"/>
   <path id="_124851056" class="fil0" d="M55.2255 88.2022c-0.3235,-2.6388 0.8852,-5.2096 3.1325,-6.6396l-3.5241 -8.7166c-5.3287,1.6514 -11.1341,0.4767 -15.3902,-3.1325l-13.6197 13.6196c9.0061,4.784 19.34,6.5034 29.4016,4.8691l-0.0001 0z"/>
   <path id="_124850984" class="fil0" d="M57.2112 71.8643l3.5411 8.7847c2.741,-0.4596 5.4649,0.7832 6.929,3.1326 1.5152,-0.7151 3.0133,-1.4642 4.4945,-2.2473l-11.764 -11.781c-0.9874,0.8342 -2.06,1.5492 -3.2006,2.111z"/>
   <path id="_124850912" class="fil0" d="M99.545 62.2061c-0.9874,-0.9704 -1.6684,-2.2132 -1.9408,-3.5922l-31.4786 0c-0.2724,3.3879 -1.6173,6.6055 -3.7965,9.1933l12.3429 12.3428c8.9719,-4.9712 17.3141,-10.9979 24.8729,-17.944l0.0001 0.0001z"/>
   <path id="_124850840" class="fil0" d="M81.7631 14.7269c1.4812,1.4811 2.8602,3.0474 4.154,4.6987l-25.5368 25.5369c-0.9364,-0.7831 -1.9408,-1.447 -3.0134,-2.0089l12.6663 -30.2868c2.3494,0.4767 4.7839,-0.3405 6.4012,-2.1281 1.8727,1.2598 3.6603,2.6729 5.3287,4.1881l0 0.0001z"/>
   <ellipse id="_124850768" class="fil1" cx="61.8557" cy="87.422" rx="4.1029" ry="4.1199"/>
   <circle id="_124850696" class="fil1" cx="105.1094" cy="56.7321" r="4.1199"/>
   <circle id="_124850624" class="fil1" cx="71.3504" cy="6.0035" r="4.1199"/>
   <polygon id="_124850528" class="fil0" points="20.0222,121.2388 20.0222,110.428 24.653,110.428 30.952,117.8852 30.952,110.4967 34.1868,110.4967 34.1868,121.2388 29.2496,121.2388 23.1889,114.157 23.1889,121.2388 "/>
   <polygon id="_124850456" class="fil0" points="36.9017,121.2388 36.9017,110.3429 39.9321,110.3429 39.9321,121.2388 "/>
   <path id="_124850384" class="fil0" d="M52.0661 117.2675l3.0134 0 0 1.4471c0,1.4981 -1.2939,2.6728 -2.7921,2.5196l-6.265 0c-1.5663,0 -2.8601,-1.1747 -3.0304,-2.7239l0 -5.4479c0,-1.6173 1.4131,-2.8942 3.0304,-2.7239l6.265 0c1.4471,0 2.6559,1.0895 2.8091,2.5196l0 1.4641 -3.0304 0c-0.017,-0.732 -0.6299,-1.2939 -1.3619,-1.2598l-3.1666 0c-0.8002,-0.0341 -1.4812,0.5788 -1.5152,1.362l0 2.7239c0.034,0.8002 0.715,1.396 1.5152,1.362l3.1666 0c0.715,0.034 1.3279,-0.5108 1.3619,-1.2428z"/>
   <path id="_124850312" class="fil0" d="M61.1829 119.5238l-0.7434 1.7347 -3.2216 0 4.4606 -10.78 4.9563 0 4.5846 10.78 -3.4694 0 -0.4956 -1.7347 -6.0715 0zm4.8324 -2.6021l-3.7172 0 1.8586 -4.5845 1.8586 4.5845z"/>
   <polygon id="_124850240" class="fil0" points="76.7986,115.0111 76.7986,121.1907 73.7681,121.1907 73.7681,110.2948 77.2583,110.2948 82.7232,118.79 87.8135,110.2948 91.2525,110.2948 91.2525,121.1907 88.2221,121.1907 88.2221,115.3514 84.715,121.1907 80.7653,121.1907 "/>
   <path id="_124850168" class="fil0" d="M94.039 121.2388l0 -11.0278 9.5408 0c1.4869,0 2.6021,1.2391 2.8499,2.726l0 2.9738c0,1.4869 -1.363,2.8499 -2.8499,2.8499l-6.3192 0 0 2.4781 -3.2216 0zm3.2216 -5.4519l0 -2.726 4.8323 0c1.8586,0 1.8586,2.726 0,2.726l-4.8323 0z"/>
   <path id="_124850096" class="fil0" d="M6.7534 117.087l0 -6.8098 -3.0304 0 0 8.291c0,1.4471 1.1747,2.6047 2.6048,2.6047l8.4953 0c1.447,0 2.6047,-1.1576 2.6047,-2.6047l0 -8.2059 -3.0304 0 0 6.7247c0,0.7491 -0.6128,1.362 -1.3619,1.362l-4.9201 0c-0.7491,0 -1.362,-0.6129 -1.362,-1.362z"/>
   <path id="_124850024" class="fil0" d="M95.4834 37.2028c-1.5322,-3.6263 -3.2177,-7.1844 -5.0563,-10.6745 -0.9364,-1.6514 -1.9238,-3.2687 -2.9623,-4.852l-25.1793 25.1795c0.8001,0.9704 1.4981,2.0089 2.0599,3.1155l31.1381 -12.7685 -0.0001 0z"/>
   <path id="_124849952" class="fil0" d="M96.5669 39.7302c1.5151,3.9326 2.8941,7.9334 4.0859,11.9854 -1.5323,0.9704 -2.6218,2.5366 -3.0134,4.3242l-31.4955 0c-0.1021,-1.2087 -0.3234,-2.4004 -0.698,-3.5581l31.1211 -12.7515 -0.0001 0z"/>
  </g>
 </g>
</svg>
